<mxfile host="app.diagrams.net" agent="Mozilla/5.0 (Windows NT 10.0; Win64; x64) AppleWebKit/537.36 (KHTML, like Gecko) Chrome/131.0.0.0 Safari/537.36" version="25.0.1">
  <diagram name="Page-1" id="9Bccsx3Z5B8fQnUlhqxE">
    <mxGraphModel dx="1338" dy="840" grid="1" gridSize="10" guides="1" tooltips="1" connect="1" arrows="1" fold="1" page="1" pageScale="1" pageWidth="850" pageHeight="1100" math="0" shadow="0">
      <root>
        <mxCell id="0" />
        <mxCell id="1" parent="0" />
        <mxCell id="ChqHwMPHoXHJXrhsBwt8-1" style="edgeStyle=orthogonalEdgeStyle;rounded=0;orthogonalLoop=1;jettySize=auto;html=1;" edge="1" parent="1" source="ChqHwMPHoXHJXrhsBwt8-3" target="ChqHwMPHoXHJXrhsBwt8-4">
          <mxGeometry relative="1" as="geometry" />
        </mxCell>
        <mxCell id="ChqHwMPHoXHJXrhsBwt8-2" style="edgeStyle=orthogonalEdgeStyle;rounded=0;orthogonalLoop=1;jettySize=auto;html=1;exitX=0.5;exitY=1;exitDx=0;exitDy=0;entryX=0.5;entryY=0;entryDx=0;entryDy=0;" edge="1" parent="1" source="ChqHwMPHoXHJXrhsBwt8-3" target="ChqHwMPHoXHJXrhsBwt8-9">
          <mxGeometry relative="1" as="geometry" />
        </mxCell>
        <mxCell id="ChqHwMPHoXHJXrhsBwt8-3" value="Accueil" style="rounded=1;whiteSpace=wrap;html=1;fillColor=#f5f5f5;strokeColor=#666666;fontColor=#333333;" vertex="1" parent="1">
          <mxGeometry x="280" y="40" width="120" height="60" as="geometry" />
        </mxCell>
        <mxCell id="ChqHwMPHoXHJXrhsBwt8-4" value="ParamÃ¨tres" style="rounded=1;whiteSpace=wrap;html=1;fillColor=#f5f5f5;fontColor=#333333;strokeColor=#666666;" vertex="1" parent="1">
          <mxGeometry x="440" y="50" width="110" height="40" as="geometry" />
        </mxCell>
        <mxCell id="ChqHwMPHoXHJXrhsBwt8-5" style="edgeStyle=orthogonalEdgeStyle;rounded=0;orthogonalLoop=1;jettySize=auto;html=1;exitX=0.5;exitY=1;exitDx=0;exitDy=0;" edge="1" parent="1" source="ChqHwMPHoXHJXrhsBwt8-9" target="ChqHwMPHoXHJXrhsBwt8-11">
          <mxGeometry relative="1" as="geometry" />
        </mxCell>
        <mxCell id="ChqHwMPHoXHJXrhsBwt8-6" style="edgeStyle=orthogonalEdgeStyle;rounded=0;orthogonalLoop=1;jettySize=auto;html=1;exitX=0.5;exitY=1;exitDx=0;exitDy=0;entryX=0.5;entryY=0;entryDx=0;entryDy=0;" edge="1" parent="1" source="ChqHwMPHoXHJXrhsBwt8-9" target="ChqHwMPHoXHJXrhsBwt8-13">
          <mxGeometry relative="1" as="geometry" />
        </mxCell>
        <mxCell id="ChqHwMPHoXHJXrhsBwt8-7" style="edgeStyle=orthogonalEdgeStyle;rounded=0;orthogonalLoop=1;jettySize=auto;html=1;exitX=0.5;exitY=1;exitDx=0;exitDy=0;entryX=0.5;entryY=0;entryDx=0;entryDy=0;" edge="1" parent="1" source="ChqHwMPHoXHJXrhsBwt8-9" target="ChqHwMPHoXHJXrhsBwt8-15">
          <mxGeometry relative="1" as="geometry" />
        </mxCell>
        <mxCell id="ChqHwMPHoXHJXrhsBwt8-8" style="edgeStyle=orthogonalEdgeStyle;rounded=0;orthogonalLoop=1;jettySize=auto;html=1;exitX=0.5;exitY=1;exitDx=0;exitDy=0;" edge="1" parent="1" source="ChqHwMPHoXHJXrhsBwt8-9" target="ChqHwMPHoXHJXrhsBwt8-17">
          <mxGeometry relative="1" as="geometry" />
        </mxCell>
        <mxCell id="ChqHwMPHoXHJXrhsBwt8-9" value="1-1: Le Comte" style="rounded=1;whiteSpace=wrap;html=1;" vertex="1" parent="1">
          <mxGeometry x="285" y="130" width="110" height="50" as="geometry" />
        </mxCell>
        <mxCell id="ChqHwMPHoXHJXrhsBwt8-10" style="edgeStyle=orthogonalEdgeStyle;rounded=0;orthogonalLoop=1;jettySize=auto;html=1;exitX=0.5;exitY=1;exitDx=0;exitDy=0;" edge="1" parent="1" source="ChqHwMPHoXHJXrhsBwt8-11" target="ChqHwMPHoXHJXrhsBwt8-26">
          <mxGeometry relative="1" as="geometry" />
        </mxCell>
        <mxCell id="ChqHwMPHoXHJXrhsBwt8-11" value="2-1: Choisir&amp;nbsp;Alvart" style="rounded=1;whiteSpace=wrap;html=1;fillColor=#d5e8d4;strokeColor=#82b366;fontColor=#050505;" vertex="1" parent="1">
          <mxGeometry x="50" y="230" width="110" height="50" as="geometry" />
        </mxCell>
        <mxCell id="ChqHwMPHoXHJXrhsBwt8-12" style="edgeStyle=orthogonalEdgeStyle;rounded=0;orthogonalLoop=1;jettySize=auto;html=1;exitX=0.5;exitY=1;exitDx=0;exitDy=0;" edge="1" parent="1" source="ChqHwMPHoXHJXrhsBwt8-13" target="ChqHwMPHoXHJXrhsBwt8-26">
          <mxGeometry relative="1" as="geometry" />
        </mxCell>
        <mxCell id="ChqHwMPHoXHJXrhsBwt8-13" value="3-1: Choisir&amp;nbsp;&lt;span style=&quot;background-color: initial;&quot;&gt;Cherminon&lt;/span&gt;" style="rounded=1;whiteSpace=wrap;html=1;fillColor=#fff2cc;strokeColor=#d6b656;fontColor=#050505;" vertex="1" parent="1">
          <mxGeometry x="190" y="230" width="140" height="50" as="geometry" />
        </mxCell>
        <mxCell id="ChqHwMPHoXHJXrhsBwt8-14" style="edgeStyle=orthogonalEdgeStyle;rounded=0;orthogonalLoop=1;jettySize=auto;html=1;exitX=0.5;exitY=1;exitDx=0;exitDy=0;" edge="1" parent="1" source="ChqHwMPHoXHJXrhsBwt8-15" target="ChqHwMPHoXHJXrhsBwt8-26">
          <mxGeometry relative="1" as="geometry" />
        </mxCell>
        <mxCell id="ChqHwMPHoXHJXrhsBwt8-15" value="4-1: Choisir Pain" style="rounded=1;whiteSpace=wrap;html=1;fillColor=#ffe6cc;strokeColor=#d79b00;fontColor=#050505;" vertex="1" parent="1">
          <mxGeometry x="350" y="230" width="110" height="50" as="geometry" />
        </mxCell>
        <mxCell id="ChqHwMPHoXHJXrhsBwt8-16" style="edgeStyle=orthogonalEdgeStyle;rounded=0;orthogonalLoop=1;jettySize=auto;html=1;exitX=0.5;exitY=1;exitDx=0;exitDy=0;entryX=0.5;entryY=0;entryDx=0;entryDy=0;" edge="1" parent="1" source="ChqHwMPHoXHJXrhsBwt8-17" target="ChqHwMPHoXHJXrhsBwt8-26">
          <mxGeometry relative="1" as="geometry" />
        </mxCell>
        <mxCell id="ChqHwMPHoXHJXrhsBwt8-17" value="5-1: Choisir Lusin" style="rounded=1;whiteSpace=wrap;html=1;fillColor=#dae8fc;strokeColor=#6c8ebf;fontColor=#050505;" vertex="1" parent="1">
          <mxGeometry x="490" y="230" width="110" height="50" as="geometry" />
        </mxCell>
        <mxCell id="ChqHwMPHoXHJXrhsBwt8-18" style="edgeStyle=orthogonalEdgeStyle;rounded=0;orthogonalLoop=1;jettySize=auto;html=1;exitX=0.5;exitY=1;exitDx=0;exitDy=0;entryX=0.5;entryY=0;entryDx=0;entryDy=0;" edge="1" parent="1">
          <mxGeometry relative="1" as="geometry">
            <mxPoint x="105" y="450" as="targetPoint" />
          </mxGeometry>
        </mxCell>
        <mxCell id="ChqHwMPHoXHJXrhsBwt8-19" style="edgeStyle=orthogonalEdgeStyle;rounded=0;orthogonalLoop=1;jettySize=auto;html=1;exitX=0.5;exitY=1;exitDx=0;exitDy=0;entryX=0.5;entryY=0;entryDx=0;entryDy=0;" edge="1" parent="1">
          <mxGeometry relative="1" as="geometry">
            <mxPoint x="260" y="430" as="sourcePoint" />
          </mxGeometry>
        </mxCell>
        <mxCell id="ChqHwMPHoXHJXrhsBwt8-20" style="edgeStyle=orthogonalEdgeStyle;rounded=0;orthogonalLoop=1;jettySize=auto;html=1;exitX=0.5;exitY=1;exitDx=0;exitDy=0;entryX=0.5;entryY=0;entryDx=0;entryDy=0;" edge="1" parent="1">
          <mxGeometry relative="1" as="geometry">
            <mxPoint x="405" y="430" as="sourcePoint" />
          </mxGeometry>
        </mxCell>
        <mxCell id="ChqHwMPHoXHJXrhsBwt8-21" style="edgeStyle=orthogonalEdgeStyle;rounded=0;orthogonalLoop=1;jettySize=auto;html=1;exitX=0.5;exitY=1;exitDx=0;exitDy=0;" edge="1" parent="1">
          <mxGeometry relative="1" as="geometry">
            <mxPoint x="545" y="430" as="sourcePoint" />
          </mxGeometry>
        </mxCell>
        <mxCell id="ChqHwMPHoXHJXrhsBwt8-22" style="edgeStyle=orthogonalEdgeStyle;rounded=0;orthogonalLoop=1;jettySize=auto;html=1;exitX=0.5;exitY=1;exitDx=0;exitDy=0;entryX=0.5;entryY=0;entryDx=0;entryDy=0;" edge="1" parent="1" source="ChqHwMPHoXHJXrhsBwt8-26" target="ChqHwMPHoXHJXrhsBwt8-28">
          <mxGeometry relative="1" as="geometry" />
        </mxCell>
        <mxCell id="ChqHwMPHoXHJXrhsBwt8-23" style="edgeStyle=orthogonalEdgeStyle;rounded=0;orthogonalLoop=1;jettySize=auto;html=1;exitX=0.5;exitY=1;exitDx=0;exitDy=0;entryX=0.5;entryY=0;entryDx=0;entryDy=0;" edge="1" parent="1" source="ChqHwMPHoXHJXrhsBwt8-26" target="ChqHwMPHoXHJXrhsBwt8-30">
          <mxGeometry relative="1" as="geometry" />
        </mxCell>
        <mxCell id="ChqHwMPHoXHJXrhsBwt8-24" style="edgeStyle=orthogonalEdgeStyle;rounded=0;orthogonalLoop=1;jettySize=auto;html=1;exitX=0.5;exitY=1;exitDx=0;exitDy=0;entryX=0.5;entryY=0;entryDx=0;entryDy=0;" edge="1" parent="1" source="ChqHwMPHoXHJXrhsBwt8-26" target="ChqHwMPHoXHJXrhsBwt8-33">
          <mxGeometry relative="1" as="geometry" />
        </mxCell>
        <mxCell id="ChqHwMPHoXHJXrhsBwt8-25" style="edgeStyle=orthogonalEdgeStyle;rounded=0;orthogonalLoop=1;jettySize=auto;html=1;exitX=0.5;exitY=1;exitDx=0;exitDy=0;" edge="1" parent="1" source="ChqHwMPHoXHJXrhsBwt8-26" target="ChqHwMPHoXHJXrhsBwt8-32">
          <mxGeometry relative="1" as="geometry" />
        </mxCell>
        <mxCell id="ChqHwMPHoXHJXrhsBwt8-26" value="1-2: Meutre de Lorie" style="rounded=1;whiteSpace=wrap;html=1;" vertex="1" parent="1">
          <mxGeometry x="285" y="360" width="110" height="50" as="geometry" />
        </mxCell>
        <mxCell id="ChqHwMPHoXHJXrhsBwt8-27" style="edgeStyle=orthogonalEdgeStyle;rounded=0;orthogonalLoop=1;jettySize=auto;html=1;exitX=0.5;exitY=1;exitDx=0;exitDy=0;entryX=0.5;entryY=0;entryDx=0;entryDy=0;" edge="1" parent="1" source="ChqHwMPHoXHJXrhsBwt8-28" target="ChqHwMPHoXHJXrhsBwt8-31">
          <mxGeometry relative="1" as="geometry" />
        </mxCell>
        <mxCell id="ChqHwMPHoXHJXrhsBwt8-28" value="3-2: Conflit contre Pain" style="rounded=1;whiteSpace=wrap;html=1;fillColor=#fff2cc;strokeColor=#d6b656;fontColor=#050505;" vertex="1" parent="1">
          <mxGeometry x="190" y="450" width="140" height="50" as="geometry" />
        </mxCell>
        <mxCell id="ChqHwMPHoXHJXrhsBwt8-29" style="edgeStyle=orthogonalEdgeStyle;rounded=0;orthogonalLoop=1;jettySize=auto;html=1;exitX=0.5;exitY=1;exitDx=0;exitDy=0;" edge="1" parent="1" source="ChqHwMPHoXHJXrhsBwt8-30" target="ChqHwMPHoXHJXrhsBwt8-31">
          <mxGeometry relative="1" as="geometry" />
        </mxCell>
        <mxCell id="ChqHwMPHoXHJXrhsBwt8-30" value="4-2: Conflit contre Cherminon" style="rounded=1;whiteSpace=wrap;html=1;fillColor=#ffe6cc;strokeColor=#d79b00;fontColor=#050505;" vertex="1" parent="1">
          <mxGeometry x="350" y="450" width="110" height="50" as="geometry" />
        </mxCell>
        <mxCell id="ChqHwMPHoXHJXrhsBwt8-31" value="1-3: Bataille" style="rounded=1;whiteSpace=wrap;html=1;fillColor=#ffe6cc;strokeColor=#d79b00;fontColor=#050505;" vertex="1" parent="1">
          <mxGeometry x="285" y="540" width="110" height="50" as="geometry" />
        </mxCell>
        <mxCell id="ChqHwMPHoXHJXrhsBwt8-44" style="edgeStyle=orthogonalEdgeStyle;rounded=0;orthogonalLoop=1;jettySize=auto;html=1;exitX=0.5;exitY=1;exitDx=0;exitDy=0;entryX=0.75;entryY=0;entryDx=0;entryDy=0;" edge="1" parent="1" source="ChqHwMPHoXHJXrhsBwt8-32" target="ChqHwMPHoXHJXrhsBwt8-36">
          <mxGeometry relative="1" as="geometry">
            <Array as="points">
              <mxPoint x="545" y="630" />
              <mxPoint x="372" y="630" />
            </Array>
          </mxGeometry>
        </mxCell>
        <mxCell id="ChqHwMPHoXHJXrhsBwt8-32" value="5-2: ThÃ©orie avec Lusin" style="rounded=1;whiteSpace=wrap;html=1;fillColor=#dae8fc;strokeColor=#6c8ebf;fontColor=#050505;" vertex="1" parent="1">
          <mxGeometry x="490" y="450" width="110" height="50" as="geometry" />
        </mxCell>
        <mxCell id="ChqHwMPHoXHJXrhsBwt8-33" value="2-2: Investigation avec Alvart" style="rounded=1;whiteSpace=wrap;html=1;fillColor=#d5e8d4;strokeColor=#82b366;fontColor=#050505;" vertex="1" parent="1">
          <mxGeometry x="50" y="450" width="110" height="50" as="geometry" />
        </mxCell>
        <mxCell id="ChqHwMPHoXHJXrhsBwt8-34" style="edgeStyle=orthogonalEdgeStyle;rounded=0;orthogonalLoop=1;jettySize=auto;html=1;exitX=0.5;exitY=1;exitDx=0;exitDy=0;" edge="1" parent="1" source="ChqHwMPHoXHJXrhsBwt8-36" target="ChqHwMPHoXHJXrhsBwt8-38">
          <mxGeometry relative="1" as="geometry" />
        </mxCell>
        <mxCell id="ChqHwMPHoXHJXrhsBwt8-35" style="edgeStyle=orthogonalEdgeStyle;rounded=0;orthogonalLoop=1;jettySize=auto;html=1;exitX=0.5;exitY=1;exitDx=0;exitDy=0;" edge="1" parent="1" source="ChqHwMPHoXHJXrhsBwt8-36" target="ChqHwMPHoXHJXrhsBwt8-37">
          <mxGeometry relative="1" as="geometry" />
        </mxCell>
        <mxCell id="ChqHwMPHoXHJXrhsBwt8-36" value="1-4: Assaut" style="rounded=1;whiteSpace=wrap;html=1;" vertex="1" parent="1">
          <mxGeometry x="290" y="650" width="110" height="50" as="geometry" />
        </mxCell>
        <mxCell id="ChqHwMPHoXHJXrhsBwt8-37" value="1-6: Fin de Lusin" style="rounded=1;whiteSpace=wrap;html=1;fillColor=#dae8fc;strokeColor=#6c8ebf;fontColor=#050505;" vertex="1" parent="1">
          <mxGeometry x="370" y="750" width="110" height="50" as="geometry" />
        </mxCell>
        <mxCell id="ChqHwMPHoXHJXrhsBwt8-38" value="1-5: Fin commune" style="rounded=1;whiteSpace=wrap;html=1;" vertex="1" parent="1">
          <mxGeometry x="220" y="750" width="110" height="50" as="geometry" />
        </mxCell>
        <mxCell id="ChqHwMPHoXHJXrhsBwt8-39" style="edgeStyle=orthogonalEdgeStyle;rounded=0;orthogonalLoop=1;jettySize=auto;html=1;exitX=0.5;exitY=1;exitDx=0;exitDy=0;entryX=0.451;entryY=0.011;entryDx=0;entryDy=0;entryPerimeter=0;" edge="1" parent="1" source="ChqHwMPHoXHJXrhsBwt8-31" target="ChqHwMPHoXHJXrhsBwt8-36">
          <mxGeometry relative="1" as="geometry">
            <Array as="points">
              <mxPoint x="340" y="610" />
              <mxPoint x="340" y="610" />
            </Array>
          </mxGeometry>
        </mxCell>
        <mxCell id="ChqHwMPHoXHJXrhsBwt8-42" style="edgeStyle=orthogonalEdgeStyle;rounded=0;orthogonalLoop=1;jettySize=auto;html=1;exitX=0.5;exitY=1;exitDx=0;exitDy=0;entryX=0.182;entryY=0;entryDx=0;entryDy=0;entryPerimeter=0;" edge="1" parent="1" source="ChqHwMPHoXHJXrhsBwt8-33" target="ChqHwMPHoXHJXrhsBwt8-36">
          <mxGeometry relative="1" as="geometry">
            <Array as="points">
              <mxPoint x="105" y="630" />
              <mxPoint x="310" y="630" />
            </Array>
          </mxGeometry>
        </mxCell>
      </root>
    </mxGraphModel>
  </diagram>
</mxfile>
